{
  "accessors": [
    {
      "bufferView": 2,
      "componentType": 5126,
      "count": 65532,
      "max": [
        -782.4178466796875,
        2065.044189453125,
        1244.7640380859375
      ],
      "min": [
        -1088.2371826171875,
        334.657470703125,
        910.756103515625
      ],
      "type": "VEC3"
    },
    {
      "bufferView": 2,
      "byteOffset": 786384,
      "componentType": 5126,
      "count": 65532,
      "max": [
        0.9999999403953552,
        0.9999892711639404,
        0.9999880194664001
      ],
      "min": [
        -0.9999996423721313,
        -0.9999953508377075,
        -0.999994695186615
      ],
      "type": "VEC3"
    },
    {
      "bufferView": 1,
      "componentType": 5126,
      "count": 65532,
      "max": [
        0.9995120167732239,
        0.955830991268158
      ],
      "min": [
        0.0004879999905824661,
        0.0004879999905824661
      ],
      "type": "VEC2"
    },
    {
      "bufferView": 0,
      "componentType": 5125,
      "count": 310785,
      "type": "SCALAR"
    },
    {
      "bufferView": 2,
      "byteOffset": 1572768,
      "componentType": 5126,
      "count": 65532,
      "max": [
        -739.0736083984375,
        2013.818603515625,
        1245.811767578125
      ],
      "min": [
        -1101.38232421875,
        334.50726318359375,
        863.0758056640625
      ],
      "type": "VEC3"
    },
    {
      "bufferView": 2,
      "byteOffset": 2359152,
      "componentType": 5126,
      "count": 65532,
      "max": [
        0.9999824166297913,
        0.9796594381332397,
        0.9999997019767761
      ],
      "min": [
        -0.891045093536377,
        -0.9998958110809326,
        -0.9987046718597412
      ],
      "type": "VEC3"
    },
    {
      "bufferView": 1,
      "byteOffset": 524256,
      "componentType": 5126,
      "count": 65532,
      "max": [
        0.9995089769363403,
        0.9545900225639343
      ],
      "min": [
        0.0004879999905824661,
        0.0004889999981969595
      ],
      "type": "VEC2"
    },
    {
      "bufferView": 0,
      "byteOffset": 1243140,
      "componentType": 5125,
      "count": 322536,
      "type": "SCALAR"
    },
    {
      "bufferView": 2,
      "byteOffset": 3145536,
      "componentType": 5126,
      "count": 65532,
      "max": [
        -736.2682495117188,
        2055.156494140625,
        1243.571533203125
      ],
      "min": [
        -1109.870849609375,
        334.4983215332031,
        765.7333984375
      ],
      "type": "VEC3"
    },
    {
      "bufferView": 2,
      "byteOffset": 3931920,
      "componentType": 5126,
      "count": 65532,
      "max": [
        0.9999980330467224,
        0.9998454451560974,
        0.9999982714653015
      ],
      "min": [
        -0.9999809265136719,
        -0.9999513626098633,
        -0.9994577169418335
      ],
      "type": "VEC3"
    },
    {
      "bufferView": 1,
      "byteOffset": 1048512,
      "componentType": 5126,
      "count": 65532,
      "max": [
        0.9995110034942627,
        0.9533849954605103
      ],
      "min": [
        0.0004879999905824661,
        0.0004879999905824661
      ],
      "type": "VEC2"
    },
    {
      "bufferView": 0,
      "byteOffset": 2533284,
      "componentType": 5125,
      "count": 310350,
      "type": "SCALAR"
    },
    {
      "bufferView": 2,
      "byteOffset": 4718304,
      "componentType": 5126,
      "count": 65532,
      "max": [
        -737.3242797851563,
        2058.998291015625,
        1241.436767578125
      ],
      "min": [
        -1071.1693115234375,
        338.0654602050781,
        755.3314819335938
      ],
      "type": "VEC3"
    },
    {
      "bufferView": 2,
      "byteOffset": 5504688,
      "componentType": 5126,
      "count": 65532,
      "max": [
        0.9999980330467224,
        0.9995629191398621,
        0.9999943375587463
      ],
      "min": [
        -0.9999359846115112,
        -0.9997933506965637,
        -0.9999997019767761
      ],
      "type": "VEC3"
    },
    {
      "bufferView": 1,
      "byteOffset": 1572768,
      "componentType": 5126,
      "count": 65532,
      "max": [
        0.9995110034942627,
        0.9748759865760803
      ],
      "min": [
        0.0004879999905824661,
        0.0004879999905824661
      ],
      "type": "VEC2"
    },
    {
      "bufferView": 0,
      "byteOffset": 3774684,
      "componentType": 5125,
      "count": 312312,
      "type": "SCALAR"
    },
    {
      "bufferView": 2,
      "byteOffset": 6291072,
      "componentType": 5126,
      "count": 65532,
      "max": [
        -747.1072998046875,
        2055.79443359375,
        1239.5770263671875
      ],
      "min": [
        -1088.8009033203125,
        334.63922119140625,
        765.2245483398438
      ],
      "type": "VEC3"
    },
    {
      "bufferView": 2,
      "byteOffset": 7077456,
      "componentType": 5126,
      "count": 65532,
      "max": [
        0.9999342560768127,
        0.9997518658638,
        0.9992182850837708
      ],
      "min": [
        -0.9997372627258301,
        -0.9998303055763245,
        -0.9999924898147583
      ],
      "type": "VEC3"
    },
    {
      "bufferView": 1,
      "byteOffset": 2097024,
      "componentType": 5126,
      "count": 65532,
      "max": [
        0.9995120167732239,
        0.9526669979095459
      ],
      "min": [
        0.0004879999905824661,
        0.0004879999905824661
      ],
      "type": "VEC2"
    },
    {
      "bufferView": 0,
      "byteOffset": 5023932,
      "componentType": 5125,
      "count": 318639,
      "type": "SCALAR"
    },
    {
      "bufferView": 2,
      "byteOffset": 7863840,
      "componentType": 5126,
      "count": 65532,
      "max": [
        -733.7490234375,
        1089.431640625,
        1227.68798828125
      ],
      "min": [
        -1069.525390625,
        356.385498046875,
        755.393798828125
      ],
      "type": "VEC3"
    },
    {
      "bufferView": 2,
      "byteOffset": 8650224,
      "componentType": 5126,
      "count": 65532,
      "max": [
        0.9999953508377075,
        0.9996265769004822,
        0.9799641966819763
      ],
      "min": [
        -0.9953797459602356,
        -0.9997492432594299,
        -0.9999997615814209
      ],
      "type": "VEC3"
    },
    {
      "bufferView": 1,
      "byteOffset": 2621280,
      "componentType": 5126,
      "count": 65532,
      "max": [
        0.9995120167732239,
        0.9256410002708435
      ],
      "min": [
        0.0004879999905824661,
        0.0004879999905824661
      ],
      "type": "VEC2"
    },
    {
      "bufferView": 0,
      "byteOffset": 6298488,
      "componentType": 5125,
      "count": 326010,
      "type": "SCALAR"
    },
    {
      "bufferView": 2,
      "byteOffset": 9436608,
      "componentType": 5126,
      "count": 65532,
      "max": [
        -733.1513061523438,
        2065.034912109375,
        1242.4754638671875
      ],
      "min": [
        -1072.8135986328125,
        337.4257507324219,
        774.9461669921875
      ],
      "type": "VEC3"
    },
    {
      "bufferView": 2,
      "byteOffset": 10222992,
      "componentType": 5126,
      "count": 65532,
      "max": [
        0.9999985694885254,
        0.9998659491539001,
        0.999959409236908
      ],
      "min": [
        -0.9996461868286133,
        -0.9999958276748657,
        -0.9999357461929321
      ],
      "type": "VEC3"
    },
    {
      "bufferView": 1,
      "byteOffset": 3145536,
      "componentType": 5126,
      "count": 65532,
      "max": [
        0.9995120167732239,
        0.9561120271682739
      ],
      "min": [
        0.0004879999905824661,
        0.0004879999905824661
      ],
      "type": "VEC2"
    },
    {
      "bufferView": 0,
      "byteOffset": 7602528,
      "componentType": 5125,
      "count": 321852,
      "type": "SCALAR"
    },
    {
      "bufferView": 2,
      "byteOffset": 11009376,
      "componentType": 5126,
      "count": 65532,
      "max": [
        -748.9634399414063,
        2060.067138671875,
        1239.342529296875
      ],
      "min": [
        -1126.432861328125,
        337.78338623046875,
        800.3103637695313
      ],
      "type": "VEC3"
    },
    {
      "bufferView": 2,
      "byteOffset": 11795760,
      "componentType": 5126,
      "count": 65532,
      "max": [
        0.9999157190322876,
        0.9970914721488953,
        0.9999713897705078
      ],
      "min": [
        -0.9999995231628418,
        -0.990775465965271,
        -0.999633252620697
      ],
      "type": "VEC3"
    },
    {
      "bufferView": 1,
      "byteOffset": 3669792,
      "componentType": 5126,
      "count": 65532,
      "max": [
        0.9995120167732239,
        0.9858400225639343
      ],
      "min": [
        0.0004879999905824661,
        0.0004879999905824661
      ],
      "type": "VEC2"
    },
    {
      "bufferView": 0,
      "byteOffset": 8889936,
      "componentType": 5125,
      "count": 343425,
      "type": "SCALAR"
    },
    {
      "bufferView": 2,
      "byteOffset": 12582144,
      "componentType": 5126,
      "count": 65532,
      "max": [
        -734.6669921875,
        2061.244384765625,
        1245.769287109375
      ],
      "min": [
        -1124.6005859375,
        338.1021423339844,
        786.2730712890625
      ],
      "type": "VEC3"
    },
    {
      "bufferView": 2,
      "byteOffset": 13368528,
      "componentType": 5126,
      "count": 65532,
      "max": [
        0.9999949336051941,
        0.9998659491539001,
        0.9999876618385315
      ],
      "min": [
        -0.9999998807907104,
        -0.9999020099639893,
        -0.999947190284729
      ],
      "type": "VEC3"
    },
    {
      "bufferView": 1,
      "byteOffset": 4194048,
      "componentType": 5126,
      "count": 65532,
      "max": [
        0.9995110034942627,
        0.9805240035057068
      ],
      "min": [
        0.0004879999905824661,
        0.0004879999905824661
      ],
      "type": "VEC2"
    },
    {
      "bufferView": 0,
      "byteOffset": 10263636,
      "componentType": 5125,
      "count": 292728,
      "type": "SCALAR"
    },
    {
      "bufferView": 2,
      "byteOffset": 14154912,
      "componentType": 5126,
      "count": 61405,
      "max": [
        -734.2227783203125,
        2063.727783203125,
        1245.698486328125
      ],
      "min": [
        -1126.4349365234375,
        335.2841796875,
        777.6235961914063
      ],
      "type": "VEC3"
    },
    {
      "bufferView": 2,
      "byteOffset": 14891772,
      "componentType": 5126,
      "count": 61405,
      "max": [
        0.9999479651451111,
        0.9998310804367065,
        0.9999677538871765
      ],
      "min": [
        -0.9999989867210388,
        -0.9999958276748657,
        -0.9996623992919922
      ],
      "type": "VEC3"
    },
    {
      "bufferView": 1,
      "byteOffset": 4718304,
      "componentType": 5126,
      "count": 61405,
      "max": [
        0.9995120167732239,
        0.9758020043373108
      ],
      "min": [
        0.0004879999905824661,
        0.0004879999905824661
      ],
      "type": "VEC2"
    },
    {
      "bufferView": 0,
      "byteOffset": 11434548,
      "componentType": 5125,
      "count": 236511,
      "type": "SCALAR"
    },
    {
      "bufferView": 2,
      "byteOffset": 15628632,
      "componentType": 5126,
      "count": 578,
      "max": [
        -902.7923583984375,
        2060.294921875,
        1133.9681396484375
      ],
      "min": [
        -1071.338134765625,
        431.5095520019531,
        889.2425537109375
      ],
      "type": "VEC3"
    },
    {
      "bufferView": 2,
      "byteOffset": 15635568,
      "componentType": 5126,
      "count": 578,
      "max": [
        0.9982035756111145,
        0.9577486515045166,
        0.9388079047203064
      ],
      "min": [
        -0.9537287950515747,
        -0.9865584969520569,
        -0.9519763588905334
      ],
      "type": "VEC3"
    },
    {
      "bufferView": 0,
      "byteOffset": 12380592,
      "componentType": 5125,
      "count": 2202,
      "type": "SCALAR"
    }
  ],
  "asset": {
    "extras": {
      "author": "ubivox 3d scanning technology WhatsApp 91006900 (https://sketchfab.com/JIEtech)",
      "license": "CC-BY-4.0 (http://creativecommons.org/licenses/by/4.0/)",
      "source": "https://sketchfab.com/3d-models/5946-a56fdd25c8564fa7899a51b5dbb11db9",
      "title": "5946"
    },
    "generator": "Sketchfab-15.18.0",
    "version": "2.0"
  },
  "bufferViews": [
    {
      "buffer": 0,
      "byteLength": 12389400,
      "name": "floatBufferViews",
      "target": 34963
    },
    {
      "buffer": 0,
      "byteLength": 5209544,
      "byteOffset": 12389400,
      "byteStride": 8,
      "name": "floatBufferViews",
      "target": 34962
    },
    {
      "buffer": 0,
      "byteLength": 15642504,
      "byteOffset": 17598944,
      "byteStride": 12,
      "name": "floatBufferViews",
      "target": 34962
    }
  ],
  "buffers": [
    {
      "byteLength": 33241448,
      "uri": "scene.bin"
    }
  ],
  "extensionsUsed": [
    "KHR_materials_unlit"
  ],
  "images": [
    {
      "uri": "textures/material_0_baseColor.jpeg"
    }
  ],
  "materials": [
    {
      "doubleSided": true,
      "extensions": {
        "KHR_materials_unlit": {}
      },
      "name": "material_0",
      "pbrMetallicRoughness": {
        "baseColorTexture": {
          "index": 0
        },
        "metallicFactor": 0.0
      }
    },
    {
      "doubleSided": true,
      "extensions": {
        "KHR_materials_unlit": {}
      },
      "name": "material_1",
      "pbrMetallicRoughness": {
        "metallicFactor": 0.0
      }
    }
  ],
  "meshes": [
    {
      "name": "Object_0",
      "primitives": [
        {
          "attributes": {
            "NORMAL": 1,
            "POSITION": 0,
            "TEXCOORD_0": 2
          },
          "indices": 3,
          "material": 0,
          "mode": 4
        }
      ]
    },
    {
      "name": "Object_1",
      "primitives": [
        {
          "attributes": {
            "NORMAL": 5,
            "POSITION": 4,
            "TEXCOORD_0": 6
          },
          "indices": 7,
          "material": 0,
          "mode": 4
        }
      ]
    },
    {
      "name": "Object_2",
      "primitives": [
        {
          "attributes": {
            "NORMAL": 9,
            "POSITION": 8,
            "TEXCOORD_0": 10
          },
          "indices": 11,
          "material": 0,
          "mode": 4
        }
      ]
    },
    {
      "name": "Object_3",
      "primitives": [
        {
          "attributes": {
            "NORMAL": 13,
            "POSITION": 12,
            "TEXCOORD_0": 14
          },
          "indices": 15,
          "material": 0,
          "mode": 4
        }
      ]
    },
    {
      "name": "Object_4",
      "primitives": [
        {
          "attributes": {
            "NORMAL": 17,
            "POSITION": 16,
            "TEXCOORD_0": 18
          },
          "indices": 19,
          "material": 0,
          "mode": 4
        }
      ]
    },
    {
      "name": "Object_5",
      "primitives": [
        {
          "attributes": {
            "NORMAL": 21,
            "POSITION": 20,
            "TEXCOORD_0": 22
          },
          "indices": 23,
          "material": 0,
          "mode": 4
        }
      ]
    },
    {
      "name": "Object_6",
      "primitives": [
        {
          "attributes": {
            "NORMAL": 25,
            "POSITION": 24,
            "TEXCOORD_0": 26
          },
          "indices": 27,
          "material": 0,
          "mode": 4
        }
      ]
    },
    {
      "name": "Object_7",
      "primitives": [
        {
          "attributes": {
            "NORMAL": 29,
            "POSITION": 28,
            "TEXCOORD_0": 30
          },
          "indices": 31,
          "material": 0,
          "mode": 4
        }
      ]
    },
    {
      "name": "Object_8",
      "primitives": [
        {
          "attributes": {
            "NORMAL": 33,
            "POSITION": 32,
            "TEXCOORD_0": 34
          },
          "indices": 35,
          "material": 0,
          "mode": 4
        }
      ]
    },
    {
      "name": "Object_9",
      "primitives": [
        {
          "attributes": {
            "NORMAL": 37,
            "POSITION": 36,
            "TEXCOORD_0": 38
          },
          "indices": 39,
          "material": 0,
          "mode": 4
        }
      ]
    },
    {
      "name": "Object_10",
      "primitives": [
        {
          "attributes": {
            "NORMAL": 41,
            "POSITION": 40
          },
          "indices": 42,
          "material": 1,
          "mode": 4
        }
      ]
    }
  ],
  "nodes": [
    {
      "children": [
        1
      ],
      "matrix": [
        -0.01999824307858944,
        -0.06420993804931663,
        0.9977360367774963,
        0.0,
        0.0,
        -0.9979355931282043,
        -0.06422278285026572,
        0.0,
        0.9998000264167786,
        -0.0012843428412452383,
        0.019956957548856735,
        0.0,
        0.0,
        0.0,
        0.0,
        1.0
      ],
      "name": "Sketchfab_model"
    },
    {
      "children": [
        2,
        3,
        4,
        5,
        6,
        7,
        8,
        9,
        10,
        11,
        12
      ],
      "name": "5946.obj.cleaner.materialmerger.gles"
    },
    {
      "mesh": 0,
      "name": "Object_2"
    },
    {
      "mesh": 1,
      "name": "Object_3"
    },
    {
      "mesh": 2,
      "name": "Object_4"
    },
    {
      "mesh": 3,
      "name": "Object_5"
    },
    {
      "mesh": 4,
      "name": "Object_6"
    },
    {
      "mesh": 5,
      "name": "Object_7"
    },
    {
      "mesh": 6,
      "name": "Object_8"
    },
    {
      "mesh": 7,
      "name": "Object_9"
    },
    {
      "mesh": 8,
      "name": "Object_10"
    },
    {
      "mesh": 9,
      "name": "Object_11"
    },
    {
      "mesh": 10,
      "name": "Object_12"
    }
  ],
  "samplers": [
    {
      "magFilter": 9729,
      "minFilter": 9987,
      "wrapS": 10497,
      "wrapT": 10497
    }
  ],
  "scene": 0,
  "scenes": [
    {
      "name": "Sketchfab_Scene",
      "nodes": [
        0
      ]
    }
  ],
  "textures": [
    {
      "sampler": 0,
      "source": 0
    }
  ]
}
